<svg xmlns="http://www.w3.org/2000/svg" xmlns:xlink="http://www.w3.org/1999/xlink" contentStyleType="text/css" data-diagram-type="CLASS" height="447px" preserveAspectRatio="none" style="width:509px;height:447px;background:#FFFFFF;" version="1.1" viewBox="0 0 509 447" width="509px" zoomAndPan="magnify"><defs/><g><!--class Product--><g class="entity" data-entity="Product" data-source-line="1" data-uid="ent0002" id="entity_Product"><rect fill="#F1F1F1" height="227.2656" rx="2.5" ry="2.5" style="stroke:#181818;stroke-width:0.5;" width="167.6885" x="172" y="213"/><ellipse cx="224.7393" cy="229" fill="#ADD1B2" rx="11" ry="11" style="stroke:#181818;stroke-width:1;"/><path d="M227.708,234.6406 Q227.1299,234.9375 226.4893,235.0781 Q225.8486,235.2344 225.1455,235.2344 Q222.6455,235.2344 221.3174,233.5938 Q220.0049,231.9375 220.0049,228.8125 Q220.0049,225.6875 221.3174,224.0313 Q222.6455,222.375 225.1455,222.375 Q225.8486,222.375 226.4893,222.5313 Q227.1455,222.6875 227.708,222.9844 L227.708,225.7031 Q227.083,225.125 226.4893,224.8594 Q225.8955,224.5781 225.2705,224.5781 Q223.9268,224.5781 223.2393,225.6563 Q222.5518,226.7188 222.5518,228.8125 Q222.5518,230.9063 223.2393,231.9844 Q223.9268,233.0469 225.2705,233.0469 Q225.8955,233.0469 226.4893,232.7813 Q227.083,232.5 227.708,231.9219 L227.708,234.6406 Z " fill="#000000"/><text fill="#000000" font-family="sans-serif" font-size="14" lengthAdjust="spacing" textLength="53.71" x="245.2393" y="233.8467">Product</text><line style="stroke:#181818;stroke-width:0.5;" x1="173" x2="338.6885" y1="245" y2="245"/><rect fill="none" height="6" style="stroke:#C82930;stroke-width:1;" width="6" x="180" y="255.6484"/><text fill="#000000" font-family="sans-serif" font-size="14" lengthAdjust="spacing" textLength="120.4219" x="192" y="261.9951">String fromName</text><rect fill="none" height="6" style="stroke:#C82930;stroke-width:1;" width="6" x="180" y="271.9453"/><text fill="#000000" font-family="sans-serif" font-size="14" lengthAdjust="spacing" textLength="106.0117" x="192" y="278.292">LocalDate date</text><rect fill="none" height="6" style="stroke:#C82930;stroke-width:1;" width="6" x="180" y="288.2422"/><text fill="#000000" font-family="sans-serif" font-size="14" lengthAdjust="spacing" textLength="141.6885" x="192" y="294.5889">String productName</text><rect fill="none" height="6" style="stroke:#C82930;stroke-width:1;" width="6" x="180" y="304.5391"/><text fill="#000000" font-family="sans-serif" font-size="14" lengthAdjust="spacing" textLength="79.9941" x="192" y="310.8857">String code</text><rect fill="none" height="6" style="stroke:#C82930;stroke-width:1;" width="6" x="180" y="320.8359"/><text fill="#000000" font-family="sans-serif" font-size="14" lengthAdjust="spacing" textLength="110.5303" x="192" y="327.1826">double quantity</text><line style="stroke:#181818;stroke-width:0.5;" x1="173" x2="338.6885" y1="334.4844" y2="334.4844"/><ellipse cx="183" cy="348.1328" fill="#84BE84" rx="3" ry="3" style="stroke:#038048;stroke-width:1;"/><text fill="#000000" font-family="sans-serif" font-size="14" lengthAdjust="spacing" textLength="64.6338" x="192" y="351.4795">Product()</text><ellipse cx="183" cy="364.4297" fill="#84BE84" rx="3" ry="3" style="stroke:#038048;stroke-width:1;"/><text fill="#000000" font-family="sans-serif" font-size="14" lengthAdjust="spacing" textLength="111.2275" x="192" y="367.7764">getFromName()</text><ellipse cx="183" cy="380.7266" fill="#84BE84" rx="3" ry="3" style="stroke:#038048;stroke-width:1;"/><text fill="#000000" font-family="sans-serif" font-size="14" lengthAdjust="spacing" textLength="67.375" x="192" y="384.0732">getDate()</text><ellipse cx="183" cy="397.0234" fill="#84BE84" rx="3" ry="3" style="stroke:#038048;stroke-width:1;"/><text fill="#000000" font-family="sans-serif" font-size="14" lengthAdjust="spacing" textLength="128.9258" x="192" y="400.3701">getProductName()</text><ellipse cx="183" cy="413.3203" fill="#84BE84" rx="3" ry="3" style="stroke:#038048;stroke-width:1;"/><text fill="#000000" font-family="sans-serif" font-size="14" lengthAdjust="spacing" textLength="69.7539" x="192" y="416.667">getCode()</text><ellipse cx="183" cy="429.6172" fill="#84BE84" rx="3" ry="3" style="stroke:#038048;stroke-width:1;"/><text fill="#000000" font-family="sans-serif" font-size="14" lengthAdjust="spacing" textLength="88.9492" x="192" y="432.9639">getQuantity(</text></g><!--class Inventory--><g class="entity" data-entity="Inventory" data-source-line="15" data-uid="ent0003" id="entity_Inventory"><rect fill="#F1F1F1" height="129.4844" rx="2.5" ry="2.5" style="stroke:#181818;stroke-width:0.5;" width="193.542" x="7" y="7"/><ellipse cx="66.0864" cy="23" fill="#ADD1B2" rx="11" ry="11" style="stroke:#181818;stroke-width:1;"/><path d="M69.0552,28.6406 Q68.4771,28.9375 67.8364,29.0781 Q67.1958,29.2344 66.4927,29.2344 Q63.9927,29.2344 62.6646,27.5938 Q61.3521,25.9375 61.3521,22.8125 Q61.3521,19.6875 62.6646,18.0313 Q63.9927,16.375 66.4927,16.375 Q67.1958,16.375 67.8364,16.5313 Q68.4927,16.6875 69.0552,16.9844 L69.0552,19.7031 Q68.4302,19.125 67.8364,18.8594 Q67.2427,18.5781 66.6177,18.5781 Q65.2739,18.5781 64.5864,19.6563 Q63.8989,20.7188 63.8989,22.8125 Q63.8989,24.9063 64.5864,25.9844 Q65.2739,27.0469 66.6177,27.0469 Q67.2427,27.0469 67.8364,26.7813 Q68.4302,26.5 69.0552,25.9219 L69.0552,28.6406 Z " fill="#000000"/><text fill="#000000" font-family="sans-serif" font-size="14" lengthAdjust="spacing" textLength="66.8691" x="86.5864" y="27.8467">Inventory</text><line style="stroke:#181818;stroke-width:0.5;" x1="8" x2="199.542" y1="39" y2="39"/><rect fill="none" height="6" style="stroke:#C82930;stroke-width:1;" width="6" x="15" y="49.6484"/><text fill="#000000" font-family="sans-serif" font-size="14" lengthAdjust="spacing" textLength="167.542" x="27" y="55.9951">List&lt;Product&gt; products</text><line style="stroke:#181818;stroke-width:0.5;" x1="8" x2="199.542" y1="63.2969" y2="63.2969"/><ellipse cx="18" cy="76.9453" fill="#84BE84" rx="3" ry="3" style="stroke:#038048;stroke-width:1;"/><text fill="#000000" font-family="sans-serif" font-size="14" lengthAdjust="spacing" textLength="77.793" x="27" y="80.292">Inventory()</text><ellipse cx="18" cy="93.2422" fill="#84BE84" rx="3" ry="3" style="stroke:#038048;stroke-width:1;"/><text fill="#000000" font-family="sans-serif" font-size="14" lengthAdjust="spacing" textLength="90.9863" x="27" y="96.5889">addProduct()</text><ellipse cx="18" cy="109.5391" fill="#84BE84" rx="3" ry="3" style="stroke:#038048;stroke-width:1;"/><text fill="#000000" font-family="sans-serif" font-size="14" lengthAdjust="spacing" textLength="87.623" x="27" y="112.8857">getProduct()</text><ellipse cx="18" cy="125.8359" fill="#84BE84" rx="3" ry="3" style="stroke:#038048;stroke-width:1;"/><text fill="#000000" font-family="sans-serif" font-size="14" lengthAdjust="spacing" textLength="98.3555" x="27" y="129.1826">listInventory()</text></g><!--class AddProduct--><g class="entity" data-entity="AddProduct" data-source-line="23" data-uid="ent0004" id="entity_AddProduct"><rect fill="#F1F1F1" height="64.2969" rx="2.5" ry="2.5" style="stroke:#181818;stroke-width:0.5;" width="116.9863" x="236.5" y="39.5"/><ellipse cx="253.2666" cy="55.5" fill="#ADD1B2" rx="11" ry="11" style="stroke:#181818;stroke-width:1;"/><path d="M256.2354,61.1406 Q255.6572,61.4375 255.0166,61.5781 Q254.376,61.7344 253.6729,61.7344 Q251.1729,61.7344 249.8447,60.0938 Q248.5322,58.4375 248.5322,55.3125 Q248.5322,52.1875 249.8447,50.5313 Q251.1729,48.875 253.6729,48.875 Q254.376,48.875 255.0166,49.0313 Q255.6729,49.1875 256.2354,49.4844 L256.2354,52.2031 Q255.6104,51.625 255.0166,51.3594 Q254.4229,51.0781 253.7979,51.0781 Q252.4541,51.0781 251.7666,52.1563 Q251.0791,53.2188 251.0791,55.3125 Q251.0791,57.4063 251.7666,58.4844 Q252.4541,59.5469 253.7979,59.5469 Q254.4229,59.5469 255.0166,59.2813 Q255.6104,59 256.2354,58.4219 L256.2354,61.1406 Z " fill="#000000"/><text fill="#000000" font-family="sans-serif" font-size="14" lengthAdjust="spacing" textLength="81.0605" x="267.6592" y="60.3467">AddProduct</text><line style="stroke:#181818;stroke-width:0.5;" x1="237.5" x2="352.4863" y1="71.5" y2="71.5"/><line style="stroke:#181818;stroke-width:0.5;" x1="237.5" x2="352.4863" y1="79.5" y2="79.5"/><ellipse cx="247.5" cy="93.1484" fill="#84BE84" rx="3" ry="3" style="stroke:#038048;stroke-width:1;"/><text fill="#000000" font-family="sans-serif" font-size="14" lengthAdjust="spacing" textLength="90.9863" x="256.5" y="96.4951">addProduct()</text></g><!--class GetProduct--><g class="entity" data-entity="GetProduct" data-source-line="27" data-uid="ent0005" id="entity_GetProduct"><rect fill="#F1F1F1" height="64.2969" rx="2.5" ry="2.5" style="stroke:#181818;stroke-width:0.5;" width="113.623" x="389" y="39.5"/><ellipse cx="405.3329" cy="55.5" fill="#ADD1B2" rx="11" ry="11" style="stroke:#181818;stroke-width:1;"/><path d="M408.3016,61.1406 Q407.7235,61.4375 407.0829,61.5781 Q406.4422,61.7344 405.7391,61.7344 Q403.2391,61.7344 401.911,60.0938 Q400.5985,58.4375 400.5985,55.3125 Q400.5985,52.1875 401.911,50.5313 Q403.2391,48.875 405.7391,48.875 Q406.4422,48.875 407.0829,49.0313 Q407.7391,49.1875 408.3016,49.4844 L408.3016,52.2031 Q407.6766,51.625 407.0829,51.3594 Q406.4891,51.0781 405.8641,51.0781 Q404.5204,51.0781 403.8329,52.1563 Q403.1454,53.2188 403.1454,55.3125 Q403.1454,57.4063 403.8329,58.4844 Q404.5204,59.5469 405.8641,59.5469 Q406.4891,59.5469 407.0829,59.2813 Q407.6766,59 408.3016,58.4219 L408.3016,61.1406 Z " fill="#000000"/><text fill="#000000" font-family="sans-serif" font-size="14" lengthAdjust="spacing" textLength="78.6611" x="419.6291" y="60.3467">GetProduct</text><line style="stroke:#181818;stroke-width:0.5;" x1="390" x2="501.623" y1="71.5" y2="71.5"/><line style="stroke:#181818;stroke-width:0.5;" x1="390" x2="501.623" y1="79.5" y2="79.5"/><ellipse cx="400" cy="93.1484" fill="#84BE84" rx="3" ry="3" style="stroke:#038048;stroke-width:1;"/><text fill="#000000" font-family="sans-serif" font-size="14" lengthAdjust="spacing" textLength="87.623" x="409" y="96.4951">getProduct()</text></g><!--reverse link Inventory to Product--><g class="link" data-entity-1="Inventory" data-entity-2="Product" data-source-line="31" data-uid="lnk6" id="link_Inventory_Product"><path codeLine="31" d="M106.6553,148.0435 C108.7853,163.9235 111.09,168.62 118,183 C130.97,210.01 151.06,235.12 171.94,256.5" fill="none" id="Inventory-backto-Product" style="stroke:#181818;stroke-width:1;"/><polygon fill="#181818" points="105.06,136.15,101.8931,142.6285,106.6553,148.0435,109.8221,141.565,105.06,136.15" style="stroke:#181818;stroke-width:1;"/><text fill="#000000" font-family="sans-serif" font-size="13" lengthAdjust="spacing" textLength="55.0278" x="119" y="179.0669">contains</text><text fill="#000000" font-family="sans-serif" font-size="13" lengthAdjust="spacing" textLength="8.271" x="96.7622" y="156.5389">1</text><text fill="#000000" font-family="sans-serif" font-size="13" lengthAdjust="spacing" textLength="6.5" x="157.41" y="245.9315">*</text></g><!--link Inventory to Product--><g class="link" data-entity-1="Inventory" data-entity-2="Product" data-source-line="34" data-uid="lnk9" id="link_Inventory_Product"><path codeLine="34" d="M158.22,136.23 C165.57,145.95 172.73,156.06 179,166 C188.27,180.69 194.437,191.344 202.727,207.324" fill="none" id="Inventory-to-Product" style="stroke:#181818;stroke-width:1;stroke-dasharray:7.0,7.0;"/><polygon fill="#181818" points="205.49,212.65,204.8962,202.8191,203.1875,208.2117,197.7949,206.503,205.49,212.65" style="stroke:#181818;stroke-width:1;"/><text fill="#000000" font-family="sans-serif" font-size="13" lengthAdjust="spacing" textLength="29.7832" x="189" y="179.0669">uses</text></g><!--link AddProduct to Product--><g class="link" data-entity-1="AddProduct" data-entity-2="Product" data-source-line="32" data-uid="lnk7" id="link_AddProduct_Product"><path codeLine="32" d="M290.22,103.52 C285.98,131.03 280.434,167.02 274.264,207.05" fill="none" id="AddProduct-to-Product" style="stroke:#181818;stroke-width:1;stroke-dasharray:7.0,7.0;"/><polygon fill="#181818" points="273.35,212.98,278.6743,204.6944,274.1117,208.0384,270.7677,203.4757,273.35,212.98" style="stroke:#181818;stroke-width:1;"/><text fill="#000000" font-family="sans-serif" font-size="13" lengthAdjust="spacing" textLength="48.3247" x="281" y="179.0669">creates</text></g><!--link GetProduct to Product--><g class="link" data-entity-1="GetProduct" data-entity-2="Product" data-source-line="33" data-uid="lnk8" id="link_GetProduct_Product"><path codeLine="33" d="M422.7,103.52 C401.94,131.17 373.8631,168.5523 343.6731,208.7523" fill="none" id="GetProduct-to-Product" style="stroke:#181818;stroke-width:1;stroke-dasharray:7.0,7.0;"/><polygon fill="#181818" points="340.07,213.55,348.6731,208.7555,343.0725,209.5519,342.2761,203.9514,340.07,213.55" style="stroke:#181818;stroke-width:1;"/><text fill="#000000" font-family="sans-serif" font-size="13" lengthAdjust="spacing" textLength="48.3247" x="374" y="179.0669">creates</text></g><!--SRC=[RP7T2W8X48NlVOfXh_fXWsuZWYYA8ABe2Kmj5ZOjdGqYUlUitDdPo0jXZiVppQWgPGYmzKvN2k4X8AuSzkWBUuAZT-UDF9kahfsIvLoY0HstjlNoJM3kTA2ShXNjgaDfu5f9YmNUFsg_PdUwgJuPN2GkrzvSNcyR89Td4SVhNO9rn5C8zHbsPM_6elDt6dTT11odm4azIaWXPATOgVMVfd-bCeRokyIVqlNKm4yY6PSKIiOM9ngRMR9X1hqyXwoNqNUEukjRb8KDWa47WmbtU1DVDWW6-szeKEtpAfZm0W00]--></g></svg>